# 3ds Max Wavefront OBJ Exporter v0.97b - (c)2007 guruware
# File Created: 12.05.2016 22:48:49

mtllib meeple.mtl

#
# object Line001
#

v  -0.0000 -5.8136 30.3918
v  -0.0000 -4.7847 32.0754
v  -40.0000 -4.7847 32.0754
v  -40.0000 -5.8136 30.3918
v  -0.0000 -4.3171 33.8993
v  -40.0000 -4.3171 33.8993
v  -0.0000 -3.9429 43.7202
v  -40.0000 -3.9429 43.7202
v  -0.0000 -3.2882 46.4794
v  -40.0000 -3.2882 46.4794
v  -0.0000 -2.3996 48.3969
v  -40.0000 -2.3996 48.3969
v  -0.0000 -0.4822 50.6416
v  -40.0000 -0.4822 50.6416
v  -0.0000 1.7052 51.5904
v  -40.0000 1.7052 51.5904
v  -0.0000 3.3888 51.9879
v  -40.0000 3.3888 51.9879
v  -0.0000 4.5930 52.1165
v  -40.0000 4.5930 52.1165
v  -0.0000 6.4871 52.1399
v  -40.0000 6.4871 52.1399
v  -0.0000 7.8082 51.9762
v  -40.0000 7.8082 51.9762
v  -0.0000 8.7706 51.3807
v  -40.0000 8.7706 51.3807
v  -0.0000 10.5398 50.5209
v  -40.0000 10.5398 50.5209
v  -0.0000 12.7250 48.8255
v  -40.0000 12.7250 48.8255
v  -0.0000 16.0922 44.6166
v  -40.0000 16.0922 44.6166
v  -0.0000 18.8982 39.9399
v  -40.0000 18.8982 39.9399
v  -0.0000 23.2474 29.4643
v  -40.0000 23.2474 29.4643
v  -0.0000 27.1638 18.3032
v  -40.0000 27.1638 18.3032
v  -0.0000 31.1857 17.9992
v  -40.0000 31.1857 17.9992
v  -0.0000 34.9271 17.5316
v  -40.0000 34.9271 17.5316
v  -0.0000 39.1917 16.3109
v  -40.0000 39.1917 16.3109
v  -0.0000 43.0031 14.1128
v  -40.0000 43.0031 14.1128
v  -0.0000 45.7156 11.1666
v  -40.0000 45.7156 11.1666
v  -0.0000 47.2823 7.4720
v  -40.0000 47.2823 7.4720
v  -0.0000 47.9604 4.1516
v  -40.0000 47.9604 4.1516
v  -0.0000 48.1240 1.3223
v  -40.0000 48.1240 1.3223
v  -0.0000 47.5395 -2.6061
v  -40.0000 47.5395 -2.6061
v  -0.0000 46.1365 -5.8330
v  -40.0000 46.1365 -5.8330
v  -0.0000 44.6440 -8.1012
v  -40.0000 44.6440 -8.1012
v  0.0000 41.3236 -10.8837
v  -40.0000 41.3236 -10.8838
v  0.0000 37.7226 -12.3569
v  -40.0000 37.7226 -12.3569
v  0.0000 33.5604 -13.3390
v  -40.0000 33.5604 -13.3390
v  0.0000 29.6776 -13.6399
v  -40.0000 29.6776 -13.6399
v  0.0000 27.3463 -13.7557
v  -40.0000 27.3463 -13.7557
v  0.0000 26.7345 -14.3178
v  -40.0000 26.7345 -14.3178
v  0.0000 23.6261 -23.6102
v  -40.0000 23.6260 -23.6102
v  0.0000 20.9100 -30.9302
v  -40.0000 20.9100 -30.9302
v  0.0000 18.2686 -36.6828
v  -40.0000 18.2686 -36.6828
v  0.0000 15.1601 -41.7423
v  -40.0000 15.1601 -41.7423
v  0.0000 12.1509 -45.0492
v  -40.0000 12.1509 -45.0492
v  0.0000 8.6456 -47.2978
v  -40.0000 8.6456 -47.2979
v  0.0000 5.8328 -47.7671
v  -40.0000 5.8328 -47.7671
v  0.0000 2.7143 -47.4692
v  -40.0000 2.7143 -47.4692
v  0.0000 0.4160 -46.5929
v  -40.0000 0.4160 -46.5929
v  0.0000 -1.1878 -45.5677
v  -40.0000 -1.1878 -45.5677
v  0.0000 -2.8247 -43.1537
v  -40.0000 -2.8247 -43.1537
v  0.0000 -3.9339 -39.4364
v  -40.0000 -3.9339 -39.4364
v  0.0000 -4.1677 -33.8712
v  -40.0000 -4.1677 -33.8712
v  0.0000 -4.7756 -27.1836
v  -40.0000 -4.7756 -27.1837
v  0.0000 -6.4125 -25.5468
v  -40.0000 -6.4125 -25.5468
v  0.0000 -8.8443 -25.7339
v  -40.0000 -8.8443 -25.7339
v  0.0000 -12.4921 -27.2772
v  -40.0000 -12.4921 -27.2772
v  0.0000 -30.0179 -37.1824
v  -40.0000 -30.0179 -37.1824
v  0.0000 -41.8965 -42.4203
v  -40.0000 -41.8965 -42.4203
v  0.0000 -47.1274 -43.4844
v  -40.0000 -47.1274 -43.4844
v  0.0000 -50.4342 -43.3521
v  -40.0000 -50.4342 -43.3522
v  0.0000 -51.7901 -41.2735
v  -40.0000 -51.7901 -41.2735
v  0.0000 -51.9190 -13.3511
v  -40.0000 -51.9190 -13.3511
v  0.0000 -50.8938 -11.0694
v  -40.0000 -50.8938 -11.0694
v  0.0000 -47.6531 -8.5561
v  -40.0000 -47.6531 -8.5562
v  0.0000 -38.0298 -2.7277
v  -40.0000 -38.0298 -2.7277
v  0.0000 -33.6647 0.3147
v  -40.0000 -33.6647 0.3147
v  0.0000 -32.4081 2.1665
v  -40.0000 -32.4081 2.1665
v  0.0000 -33.7309 4.2829
v  -40.0000 -33.7309 4.2829
v  0.0000 -38.4928 7.3253
v  -40.0000 -38.4928 7.3253
v  0.0000 -47.4213 12.7485
v  -40.0000 -47.4213 12.7485
v  0.0000 -51.0589 15.5263
v  -40.0000 -51.0589 15.5263
v  -0.0000 -51.9187 17.9734
v  -40.0000 -51.9187 17.9734
v  -0.0000 -51.9848 44.1639
v  -40.0000 -51.9848 44.1639
v  -0.0000 -51.3896 46.7432
v  -40.0000 -51.3896 46.7432
v  -0.0000 -49.2071 48.1321
v  -40.0000 -49.2071 48.1321
v  -0.0000 -41.1383 46.7432
v  -40.0000 -41.1383 46.7432
v  -0.0000 -26.6541 39.7988
v  -40.0000 -26.6541 39.7988
v  -0.0000 -14.0219 32.7221
v  -40.0000 -14.0219 32.7221
v  -0.0000 -7.0113 29.9443
v  -40.0000 -7.0113 29.9443
# 152 vertices

vn -0.0000 -0.6365 0.7713
vn -0.0000 -0.9211 0.3892
vn 0.0000 -0.9896 0.1440
vn 0.0000 -0.9908 0.1351
vn -0.0000 -0.9449 0.3273
vn -0.0000 -0.8417 0.5400
vn -0.0000 -0.5944 0.8041
vn -0.0000 -0.3151 0.9491
vn -0.0000 -0.1683 0.9857
vn -0.0000 -0.0593 0.9982
vn -0.0000 0.0554 0.9985
vn -0.0000 0.3323 0.9432
vn -0.0000 0.4823 0.8760
vn -0.0000 0.5279 0.8493
vn -0.0000 0.7018 0.7124
vn -0.0000 0.8210 0.5709
vn -0.0000 0.8929 0.4502
vn -0.0000 0.9339 0.3574
vn -0.0000 0.6087 0.7934
vn -0.0000 0.0997 0.9950
vn -0.0000 0.2002 0.9798
vn -0.0000 0.3903 0.9207
vn -0.0000 0.6248 0.7808
vn -0.0000 0.8405 0.5418
vn -0.0000 0.9550 0.2967
vn -0.0000 0.9916 0.1293
vn -0.0000 0.9990 -0.0450
vn 0.0000 0.9614 -0.2753
vn 0.0000 0.8795 -0.4760
vn 0.0000 0.7467 -0.6651
vn 0.0000 0.5166 -0.8562
vn 0.0000 0.3051 -0.9523
vn 0.0000 0.1539 -0.9881
vn 0.0000 0.0634 -0.9980
vn 0.0000 0.3861 -0.9225
vn 0.0000 0.8391 -0.5440
vn 0.0000 0.9431 -0.3326
vn 0.0000 0.9238 -0.3828
vn 0.0000 0.8820 -0.4712
vn 0.0000 0.7993 -0.6009
vn 0.0000 0.6453 -0.7639
vn 0.0000 0.3596 -0.9331
vn 0.0000 0.0350 -0.9994
vn 0.0000 -0.2277 -0.9737
vn 0.0000 -0.4498 -0.8931
vn 0.0000 -0.6974 -0.7166
vn 0.0000 -0.9035 -0.4286
vn 0.0000 -0.9863 -0.1652
vn 0.0000 -0.9978 -0.0663
vn 0.0000 -0.9056 -0.4242
vn 0.0000 -0.3469 -0.9379
vn 0.0000 0.2363 -0.9717
vn 0.0000 0.4416 -0.8972
vn 0.0000 0.4483 -0.8939
vn 0.0000 0.3032 -0.9529
vn 0.0000 0.0803 -0.9968
vn 0.0000 -0.4938 -0.8696
vn 0.0000 -0.9579 -0.2872
vn 0.0000 -0.9783 0.2073
vn -0.0000 -0.7859 0.6184
vn -0.0000 -0.5664 0.8241
vn -0.0000 -0.5452 0.8383
vn -0.0000 -0.7115 0.7027
vn 0.0000 -0.9998 0.0188
vn 0.0000 -0.7106 -0.7036
vn 0.0000 -0.5288 -0.8487
vn 0.0000 -0.5638 -0.8259
vn 0.0000 -0.8091 -0.5877
vn 0.0000 -0.9856 -0.1694
vn 0.0000 -0.9937 0.1119
vn -0.0000 -0.8165 0.5773
vn -0.0000 -0.1968 0.9804
vn -0.0000 0.3039 0.9527
vn -0.0000 0.4608 0.8875
vn -0.0000 0.4295 0.9031
vn -0.0000 0.0098 1.0000
vn -1.0000 -0.0000 -0.0000
vn 1.0000 0.0000 0.0000
# 78 vertex normals

g Line001
usemtl wire_088088225
s 1
f 1//1 2//2 3//2 4//1 
f 2//2 5//3 6//3 3//2 
f 5//3 7//4 8//4 6//3 
f 7//4 9//5 10//5 8//4 
f 9//5 11//6 12//6 10//5 
f 11//6 13//7 14//7 12//6 
f 13//7 15//8 16//8 14//7 
f 15//8 17//9 18//9 16//8 
f 17//9 19//10 20//10 18//9 
f 19//10 21//11 22//11 20//10 
f 21//11 23//12 24//12 22//11 
f 23//12 25//13 26//13 24//12 
f 25//13 27//14 28//14 26//13 
f 27//14 29//15 30//15 28//14 
f 29//15 31//16 32//16 30//15 
f 31//16 33//17 34//17 32//16 
f 33//17 35//18 36//18 34//17 
f 35//18 37//19 38//19 36//18 
f 37//19 39//20 40//20 38//19 
f 39//20 41//21 42//21 40//20 
f 41//21 43//22 44//22 42//21 
f 43//22 45//23 46//23 44//22 
f 45//23 47//24 48//24 46//23 
f 47//24 49//25 50//25 48//24 
f 49//25 51//26 52//26 50//25 
f 51//26 53//27 54//27 52//26 
f 53//27 55//28 56//28 54//27 
f 55//28 57//29 58//29 56//28 
f 57//29 59//30 60//30 58//29 
f 59//30 61//31 62//31 60//30 
f 61//31 63//32 64//32 62//31 
f 63//32 65//33 66//33 64//32 
f 65//33 67//34 68//34 66//33 
f 67//34 69//35 70//35 68//34 
f 69//35 71//36 72//36 70//35 
f 71//36 73//37 74//37 72//36 
f 73//37 75//38 76//38 74//37 
f 75//38 77//39 78//39 76//38 
f 77//39 79//40 80//40 78//39 
f 79//40 81//41 82//41 80//40 
f 81//41 83//42 84//42 82//41 
f 83//42 85//43 86//43 84//42 
f 85//43 87//44 88//44 86//43 
f 87//44 89//45 90//45 88//44 
f 89//45 91//46 92//46 90//45 
f 91//46 93//47 94//47 92//46 
f 93//47 95//48 96//48 94//47 
f 95//48 97//49 98//49 96//48 
f 97//49 99//50 100//50 98//49 
f 99//50 101//51 102//51 100//50 
f 101//51 103//52 104//52 102//51 
f 103//52 105//53 106//53 104//52 
f 105//53 107//54 108//54 106//53 
f 107//54 109//55 110//55 108//54 
f 109//55 111//56 112//56 110//55 
f 111//56 113//57 114//57 112//56 
f 113//57 115//58 116//58 114//57 
f 115//58 117//59 118//59 116//58 
f 117//59 119//60 120//60 118//59 
f 119//60 121//61 122//61 120//60 
f 121//61 123//62 124//62 122//61 
f 123//62 125//63 126//63 124//62 
f 125//63 127//64 128//64 126//63 
f 127//64 129//65 130//65 128//64 
f 129//65 131//66 132//66 130//65 
f 131//66 133//67 134//67 132//66 
f 133//67 135//68 136//68 134//67 
f 135//68 137//69 138//69 136//68 
f 137//69 139//70 140//70 138//69 
f 139//70 141//71 142//71 140//70 
f 141//71 143//72 144//72 142//71 
f 143//72 145//73 146//73 144//72 
f 145//73 147//74 148//74 146//73 
f 147//74 149//75 150//75 148//74 
f 149//75 151//76 152//76 150//75 
f 151//76 1//1 4//1 152//76 
s 2
f 112//77 114//77 116//77 118//77 
f 110//77 112//77 118//77 108//77 
f 106//77 108//77 118//77 120//77 
f 106//77 120//77 122//77 124//77 
f 106//77 124//77 126//77 104//77 
f 104//77 126//77 128//77 102//77 
f 140//77 142//77 144//77 146//77 
f 138//77 140//77 146//77 148//77 
f 138//77 148//77 150//77 136//77 
f 134//77 136//77 150//77 132//77 
f 130//77 132//77 150//77 152//77 
f 128//77 130//77 152//77 102//77 
f 102//77 152//77 4//77 100//77 
f 100//77 4//77 3//77 36//77 
f 12//77 14//77 16//77 10//77 
f 10//77 16//77 18//77 8//77 
f 8//77 18//77 20//77 22//77 
f 6//77 8//77 22//77 24//77 
f 6//77 24//77 26//77 28//77 
f 6//77 28//77 30//77 32//77 
f 6//77 32//77 34//77 36//77 
f 3//77 6//77 36//77 
f 100//77 36//77 38//77 40//77 
f 100//77 40//77 42//77 44//77 
f 100//77 44//77 46//77 48//77 
f 100//77 48//77 50//77 52//77 
f 100//77 52//77 54//77 56//77 
f 100//77 56//77 58//77 70//77 
f 90//77 92//77 94//77 96//77 
f 88//77 90//77 96//77 86//77 
f 84//77 86//77 96//77 82//77 
f 82//77 96//77 98//77 80//77 
f 78//77 80//77 98//77 100//77 
f 76//77 78//77 100//77 74//77 
f 72//77 74//77 100//77 70//77 
f 68//77 70//77 58//77 66//77 
f 64//77 66//77 58//77 62//77 
f 60//77 62//77 58//77 
f 111//78 117//78 115//78 113//78 
f 109//78 107//78 117//78 111//78 
f 105//78 119//78 117//78 107//78 
f 105//78 123//78 121//78 119//78 
f 105//78 103//78 125//78 123//78 
f 103//78 101//78 127//78 125//78 
f 139//78 145//78 143//78 141//78 
f 137//78 147//78 145//78 139//78 
f 137//78 135//78 149//78 147//78 
f 133//78 131//78 149//78 135//78 
f 129//78 151//78 149//78 131//78 
f 127//78 101//78 151//78 129//78 
f 101//78 99//78 1//78 151//78 
f 99//78 35//78 2//78 1//78 
f 11//78 9//78 15//78 13//78 
f 9//78 7//78 17//78 15//78 
f 7//78 21//78 19//78 17//78 
f 5//78 23//78 21//78 7//78 
f 5//78 27//78 25//78 23//78 
f 5//78 31//78 29//78 27//78 
f 5//78 35//78 33//78 31//78 
f 2//78 35//78 5//78 
f 99//78 39//78 37//78 35//78 
f 99//78 43//78 41//78 39//78 
f 99//78 47//78 45//78 43//78 
f 99//78 51//78 49//78 47//78 
f 99//78 55//78 53//78 51//78 
f 99//78 69//78 57//78 55//78 
f 89//78 95//78 93//78 91//78 
f 87//78 85//78 95//78 89//78 
f 83//78 81//78 95//78 85//78 
f 81//78 79//78 97//78 95//78 
f 77//78 99//78 97//78 79//78 
f 75//78 73//78 99//78 77//78 
f 71//78 69//78 99//78 73//78 
f 67//78 65//78 57//78 69//78 
f 63//78 61//78 57//78 65//78 
f 59//78 57//78 61//78 
# 148 polygons - 4 triangles

